#!OML:ASF H:\Dans Jumps\Project 1\Capture day 1\Session 1\subject.ASF
:FULLY-SPECIFIED
:DEGREES
123
root 0.734962 17.1158 -14.5847 10.1008 -3.66514 -2.18043
lowerback 5.40616 0.493022 0.482056
upperback 2.58477 0.690801 1.74435
thorax -0.389454 0.338076 1.48104
lowerneck -16.6787 -0.0814079 -2.71687
upperneck 15.2024 0.361671 1.07351
head 7.41036 0.115554 0.836621
rclavicle -2.98177e-015 1.98785e-015
rhumerus -21.2177 -12.3902 -80.1035
rradius 27.0253
rwrist 30.986
rhand -20.5202 -24.3665
rfingers 7.12502
rthumb 5.8376 -54.2661
lclavicle -2.98177e-015 1.98785e-015
lhumerus -21.2653 -1.20002 85.1639
lradius 21.6816
lwrist 8.03178
lhand -26.5167 -5.26364
lfingers 7.12502
lthumb 0.0467442 24.7161
rfemur -27.5383 -1.76113 20.8553
rtibia 35.6253
rfoot -17.3448 -2.36721
rtoes 5.68856
lfemur -27.1499 9.69752 -19.0256
ltibia 35.8187
lfoot -15.0228 8.90223
ltoes -7.96468
124
root 0.738049 17.0825 -14.6422 10.3887 -3.65452 -2.26062
lowerback 5.93729 0.486056 0.543572
upperback 2.69464 0.690814 1.7736
thorax -0.571395 0.338121 1.47292
lowerneck -16.7597 -0.0848121 -2.7414
upperneck 14.8634 0.368774 1.05533
head 7.31289 0.118448 0.833994
rclavicle 5.06901e-015 2.0276e-014
rhumerus -21.2545 -12.3635 -79.9563
rradius 27.0181
rwrist 31.147
rhand -20.6304 -24.3149
rfingers 7.12502
rthumb 5.73116 -54.2174
lclavicle 5.06901e-015 2.0276e-014
lhumerus -21.3213 -1.05992 84.9247
lradius 21.6818
lwrist 8.23862
lhand -26.7153 -5.42501
lfingers 7.12502
lthumb -0.145115 24.5547
rfemur -28.5225 -1.78398 20.9705
rtibia 36.4562
rfoot -17.5154 -2.37893
rtoes 5.64494
lfemur -28.2001 9.81304 -19.0444
ltibia 36.7378
lfoot -15.2293 8.90614
ltoes -8.04997
125
root 0.741166 17.0474 -14.7011 10.6954 -3.6387 -2.34078
lowerback 6.47527 0.478287 0.604949
upperback 2.80733 0.690567 1.80268
thorax -0.753746 0.33795 1.46486
lowerneck -16.8519 -0.090217 -2.76962
upperneck 14.5097 0.373586 1.04114
head 7.21279 0.120633 0.833012
rclavicle -2.48481e-015 2.10712e-014
rhumerus -21.3146 -12.3415 -79.7974
rradius 27.0096
rwrist 31.2971
rhand -20.7052 -24.267
rfingers 7.12502
rthumb 5.65897 -54.1714
lclavicle -2.48481e-015 2.10712e-014
lhumerus -21.3903 -0.917689 84.6791
lradius 21.6688
lwrist 8.48623
lhand -26.8969 -5.5619
lfingers 7.12502
lthumb -0.320496 24.4176
rfemur -29.5479 -1.80894 21.0875
rtibia 37.313
rfoot -17.6916 -2.38634
rtoes 5.63976
lfemur -29.2847 9.91428 -19.0687
ltibia 37.6692
lfoot -15.4388 8.92154
ltoes -8.11995
126
root 0.744348 17.0104 -14.7608 11.0133 -3.6136 -2.41387
lowerback 7.02512 0.468279 0.660493
upperback 2.92419 0.687856 1.83096
thorax -0.937883 0.336428 1.45954
lowerneck -16.9558 -0.0955338 -2.8002
upperneck 14.1409 0.379306 1.02729
head 7.10986 0.123382 0.832609
rclavicle -1.3418e-014 -3.18055e-015
rhumerus -21.4002 -12.3317 -79.6227
rradius 26.9968
rwrist 31.428
rhand -20.7594 -24.2087
rfingers 7.12502
rthumb 5.60663 -54.1145
lclavicle -1.3418e-014 -3.18055e-015
lhumerus -21.4765 -0.761724 84.429
lradius 21.6432
lwrist 8.73431
lhand -27.0553 -5.63461
lfingers 7.12502
lthumb -0.473515 24.3446
rfemur -30.6019 -1.83916 21.1983
rtibia 38.1936
rfoot -17.8783 -2.39099
rtoes 5.67308
lfemur -30.3891 9.99312 -19.1025
ltibia 38.6065
lfoot -15.6521 8.94619
ltoes -8.15611
127
root 0.747326 16.9719 -14.8212 11.3449 -3.58226 -2.47224
lowerback 7.58736 0.457625 0.696336
upperback 3.04186 0.683823 1.85862
thorax -1.12766 0.334067 1.4649
lowerneck -17.0736 -0.0993341 -2.82873
upperneck 13.7631 0.388228 1.00598
head 7.00654 0.127277 0.829808
rclavicle 5.26779e-015 1.80894e-014
rhumerus -21.5163 -12.3425 -79.4271
rradius 26.9767
rwrist 31.5401
rhand -20.7871 -24.1368
rfingers 7.12502
rthumb 5.57994 -54.0433
lclavicle 5.26779e-015 1.80894e-014
lhumerus -21.5842 -0.596197 84.176
lradius 21.6052
lwrist 8.95138
lhand -27.1991 -5.67862
lfingers 7.12502
lthumb -0.612388 24.3002
rfemur -31.6868 -1.86824 21.2946
rtibia 39.0953
rfoot -18.0741 -2.39954
rtoes 5.72839
lfemur -31.5132 10.05 -19.153
ltibia 39.5439
lfoot -15.8643 8.97838
ltoes -8.16374
128
root 0.750077 16.9319 -14.8822 11.6904 -3.54633 -2.50867
lowerback 8.16263 0.447346 0.706303
upperback 3.15804 0.679045 1.88322
thorax -1.32579 0.331171 1.48187
lowerneck -17.1982 -0.103362 -2.85789
upperneck 13.3724 0.397659 0.981239
head 6.9003 0.131298 0.826037
rclavicle -2.16675e-014 -6.55989e-015
rhumerus -21.6708 -12.3598 -79.2129
rradius 26.9566
rwrist 31.6066
rhand -20.7902 -24.0581
rfingers 7.12502
rthumb 5.57688 -53.9647
lclavicle -2.16675e-014 -6.55989e-015
lhumerus -21.7139 -0.413873 83.9207
lradius 21.5467
lwrist 9.08825
lhand -27.3306 -5.67786
lfingers 7.12502
lthumb -0.739369 24.3006
rfemur -32.7998 -1.89692 21.3676
rtibia 40.0145
rfoot -18.2789 -2.41566
rtoes 5.7859
lfemur -32.6533 10.0838 -19.2279
ltibia 40.4768
lfoot -16.0715 9.01922
ltoes -8.14521
129
root 0.752475 16.8908 -14.9434 12.0463 -3.50554 -2.52211
lowerback 8.75096 0.437784 0.689557
upperback 3.277 0.673329 1.90421
thorax -1.52781 0.327671 1.51046
lowerneck -17.3393 -0.103937 -2.87742
upperneck 12.9685 0.412106 0.942384
head 6.79267 0.137192 0.816677
rclavicle -7.95139e-015 -7.55382e-015
rhumerus -21.8536 -12.4094 -78.9783
rradius 26.9221
rwrist 31.6625
rhand -20.7822 -23.9664
rfingers 7.12502
rthumb 5.58459 -53.8729
lclavicle -7.95139e-015 -7.55382e-015
lhumerus -21.8664 -0.222952 83.6653
lradius 21.4704
lwrist 9.12926
lhand -27.492 -5.72337
lfingers 7.12502
lthumb -0.895284 24.2545
rfemur -33.9344 -1.92065 21.4159
rtibia 40.9485
rfoot -18.4929 -2.45685
rtoes 5.79953
lfemur -33.8054 10.0947 -19.3267
ltibia 41.4035
lfoot -16.2688 9.06875
ltoes -8.11492
130
root 0.754551 16.8485 -15.0049 12.4171 -3.46275 -2.51085
lowerback 9.34738 0.429732 0.646594
upperback 3.39664 0.667157 1.91935
thorax -1.73302 0.323869 1.54807
lowerneck -17.4736 -0.101587 -2.89153
upperneck 12.534 0.429718 0.896956
head 6.67408 0.144674 0.804549
rclavicle 2.88238e-015 9.93923e-015
rhumerus -22.0706 -12.4835 -78.7273
rradius 26.8805
rwrist 31.7057
rhand -20.7621 -23.8894
rfingers 7.12502
rthumb 5.60408 -53.7953
lclavicle 2.88238e-015 9.93923e-015
lhumerus -22.0399 -0.0258844 83.4071
lradius 21.3755
lwrist 9.06963
lhand -27.6614 -5.77295
lfingers 7.12502
lthumb -1.05886 24.2042
rfemur -35.095 -1.93639 21.4363
rtibia 41.8953
rfoot -18.7145 -2.53034
rtoes 5.76462
lfemur -34.9751 10.0831 -19.4522
ltibia 42.3247
lfoot -16.4553 9.13063
ltoes -8.08143
131
root 0.756242 16.805 -15.0666 12.8046 -3.41823 -2.48384
lowerback 9.94695 0.424079 0.586735
upperback 3.51652 0.662035 1.93095
thorax -1.93907 0.320582 1.59174
lowerneck -17.6052 -0.0981848 -2.90053
upperneck 12.0746 0.447801 0.846531
head 6.54721 0.152541 0.789984
rclavicle 6.36111e-015 -4.57205e-015
rhumerus -22.3255 -12.5862 -78.4589
rradius 26.8327
rwrist 31.7553
rhand -20.7328 -23.8288
rfingers 7.12502
rthumb 5.6323 -53.7339
lclavicle 6.36111e-015 -4.57205e-015
lhumerus -22.2446 0.15341 83.1531
lradius 21.2668
lwrist 8.94445
lhand -27.8605 -5.89203
lfingers 7.12502
lthumb -1.25121 24.084
rfemur -36.2813 -1.93956 21.4379
rtibia 42.8539
rfoot -18.9442 -2.64095
rtoes 5.67152
lfemur -36.166 10.0542 -19.5951
ltibia 43.2447
lfoot -16.6334 9.20409
ltoes -8.04716
132
root 0.75767 16.7602 -15.1284 13.2112 -3.36935 -2.44479
lowerback 10.5461 0.41931 0.51808
upperback 3.6368 0.656347 1.93824
thorax -2.14362 0.317059 1.63629
lowerneck -17.7221 -0.0927597 -2.90407
upperneck 11.5781 0.466731 0.793171
head 6.40613 0.161284 0.773567
rclavicle 1.0635e-014 -1.98785e-015
rhumerus -22.6121 -12.7226 -78.1752
rradius 26.7686
rwrist 31.8262
rhand -20.7034 -23.7846
rfingers 7.12502
rthumb 5.66074 -53.689
lclavicle 1.0635e-014 -1.98785e-015
lhumerus -22.4754 0.309852 82.9036
lradius 21.1427
lwrist 8.79124
lhand -28.0636 -6.03468
lfingers 7.12502
lthumb -1.44734 23.9402
rfemur -37.4951 -1.93119 21.4248
rtibia 43.8226
rfoot -19.1805 -2.78499
rtoes 5.53706
lfemur -37.3817 10.0044 -19.7504
ltibia 44.1674
lfoot -16.8059 9.29355
ltoes -8.02505
133
root 0.758809 16.7137 -15.1904 13.6487 -3.32269 -2.40637
lowerback 11.133 0.417089 0.449418
upperback 3.75468 0.653008 1.94462
thorax -2.34305 0.314771 1.67997
lowerneck -17.8345 -0.0883072 -2.91322
upperneck 11.059 0.483548 0.749624
head 6.25731 0.169963 0.760981
rclavicle -7.7526e-015 5.36719e-015
rhumerus -22.9328 -12.8746 -77.8805
rradius 26.6979
rwrist 31.9129
rhand -20.6707 -23.7694
rfingers 7.12502
rthumb 5.69226 -53.673
lclavicle -7.7526e-015 5.36719e-015
lhumerus -22.7331 0.439482 82.6587
lradius 21.0029
lwrist 8.64879
lhand -28.2552 -6.20109
lfingers 7.12502
lthumb -1.6324 23.7724
rfemur -38.7504 -1.90622 21.4111
rtibia 44.7998
rfoot -19.4208 -2.94959
rtoes 5.36909
lfemur -38.6383 9.94485 -19.9078
ltibia 45.0984
lfoot -16.9788 9.40134
ltoes -8.02207
134
root 0.759836 16.6656 -15.2522 14.1132 -3.27233 -2.37474
lowerback 11.714 0.415021 0.390875
upperback 3.867 0.650219 1.95106
thorax -2.54408 0.312861 1.71822
lowerneck -17.9447 -0.0833181 -2.9237
upperneck 10.5277 0.499809 0.713454
head 6.10445 0.179212 0.750947
rclavicle 5.26779e-015 -1.47101e-014
rhumerus -23.289 -13.0483 -77.5719
rradius 26.6098
rwrist 32.0238
rhand -20.6247 -23.7645
rfingers 7.12502
rthumb 5.73673 -53.6668
lclavicle 5.26779e-015 -1.47101e-014
lhumerus -23.0238 0.555376 82.4169
lradius 20.8454
lwrist 8.52522
lhand -28.4066 -6.34183
lfingers 7.12502
lthumb -1.7786 23.6305
rfemur -40.0392 -1.87009 21.4044
rtibia 45.7829
rfoot -19.6673 -3.12646
rtoes 5.17802
lfemur -39.9301 9.87241 -20.0579
ltibia 46.0402
lfoot -17.1586 9.5327
ltoes -8.07023
